<svg width="100" height="100" viewBox="0 0 100 100" fill="none" xmlns="http://www.w3.org/2000/svg">
<path d="M40.625 84.375H31.25C30.4212 84.375 29.6263 84.0458 29.0403 83.4597C28.4542 82.8737 28.125 82.0788 28.125 81.25V18.75C28.125 17.9212 28.4542 17.1263 29.0403 16.5403C29.6263 15.9542 30.4212 15.625 31.25 15.625H40.625C41.4538 15.625 42.2487 15.9542 42.8347 16.5403C43.4208 17.1263 43.75 17.9212 43.75 18.75V81.25C43.75 82.0788 43.4208 82.8737 42.8347 83.4597C42.2487 84.0458 41.4538 84.375 40.625 84.375ZM68.75 84.375H59.375C58.5462 84.375 57.7513 84.0458 57.1653 83.4597C56.5792 82.8737 56.25 82.0788 56.25 81.25V18.75C56.25 17.9212 56.5792 17.1263 57.1653 16.5403C57.7513 15.9542 58.5462 15.625 59.375 15.625H68.75C69.5788 15.625 70.3737 15.9542 70.9597 16.5403C71.5458 17.1263 71.875 17.9212 71.875 18.75V81.25C71.875 82.0788 71.5458 82.8737 70.9597 83.4597C70.3737 84.0458 69.5788 84.375 68.75 84.375Z" fill="black"/>
</svg>
