<svg width="130" height="100" viewBox="0 0 130 100" fill="none" xmlns="http://www.w3.org/2000/svg">
<path d="M34.1031 85.8753C32.9231 85.8731 31.7641 85.5588 30.7399 84.9632C28.4337 83.6351 27 81.057 27 78.2582V21.6175C27 18.8109 28.4337 16.2406 30.7399 14.9125C31.7884 14.3 32.9796 13.9851 34.1889 14.0005C35.3982 14.016 36.5812 14.3613 37.6143 15.0003L85.2468 43.9769C86.2395 44.6095 87.0579 45.488 87.6252 46.5299C88.1924 47.5719 88.49 48.7431 88.49 49.9339C88.49 51.1247 88.1924 52.296 87.6252 53.338C87.0579 54.3799 86.2395 55.2584 85.2468 55.891L37.6066 84.8753C36.5494 85.5249 35.3385 85.8705 34.1031 85.8753Z" fill="black"/>
<rect x="88" y="14" width="14" height="72" rx="7" fill="black"/>
</svg>
