<svg width="100" height="100" viewBox="0 0 100 100" fill="none" xmlns="http://www.w3.org/2000/svg">
<path d="M25.9766 85.9374C24.7774 85.9351 23.5994 85.6208 22.5586 85.0252C20.2148 83.6971 18.7578 81.119 18.7578 78.3202V21.6795C18.7578 18.8729 20.2148 16.3026 22.5586 14.9745C23.6242 14.362 24.8348 14.0471 26.0638 14.0626C27.2928 14.078 28.495 14.4233 29.5449 15.0624L77.9531 44.0389C78.962 44.6715 79.7937 45.55 80.3702 46.5919C80.9467 47.6339 81.2491 48.8052 81.2491 49.996C81.2491 51.1867 80.9467 52.358 80.3702 53.4C79.7937 54.4419 78.962 55.3204 77.9531 55.953L29.5371 84.9374C28.4627 85.5869 27.2321 85.9325 25.9766 85.9374Z" fill="black"/>
</svg>
