<svg width="130" height="100" viewBox="0 0 130 100" fill="none" xmlns="http://www.w3.org/2000/svg">
<path d="M95.8969 14.1247C97.0769 14.1269 98.2359 14.4412 99.2601 15.0368C101.566 16.3649 103 18.943 103 21.7418L103 78.3825C103 81.1891 101.566 83.7594 99.2601 85.0875C98.2116 85.7 97.0204 86.0149 95.8111 85.9995C94.6018 85.984 93.4188 85.6387 92.3857 84.9997L44.7532 56.0231C43.7605 55.3905 42.9421 54.512 42.3748 53.4701C41.8076 52.4281 41.51 51.2569 41.51 50.0661C41.51 48.8753 41.8076 47.704 42.3748 46.662C42.9421 45.6201 43.7605 44.7416 44.7532 44.109L92.3934 15.1247C93.4506 14.4751 94.6615 14.1295 95.8969 14.1247Z" fill="black"/>
<rect x="42" y="86" width="14" height="72" rx="7" transform="rotate(-180 42 86)" fill="black"/>
</svg>
